<svg width="18" height="18" viewBox="0 0 18 18" fill="none" xmlns="http://www.w3.org/2000/svg">
<g clip-path="url(#clip0_751_62)">
<path d="M18 10.0945H10.0944V18.0001H18V10.0945Z" fill="#0d0b0d"/>
<path d="M14.0472 7.9056C16.2302 7.9056 18 6.13587 18 3.9528C18 1.76973 16.2302 0 14.0472 0C11.8641 0 10.0944 1.76973 10.0944 3.9528C10.0944 6.13587 11.8641 7.9056 14.0472 7.9056Z" fill="#0d0b0d"/>
<path d="M7.9056 10.0945H0V18.0001H7.9056V10.0945Z" fill="#0d0b0d"/>
<path d="M3.9528 7.9056C6.13587 7.9056 7.9056 6.13587 7.9056 3.9528C7.9056 1.76973 6.13587 0 3.9528 0C1.76973 0 0 1.76973 0 3.9528C0 6.13587 1.76973 7.9056 3.9528 7.9056Z" fill="#0d0b0d"/>
</g>
<defs>
<clipPath id="clip0_751_62">
<rect width="18" height="18" fill="white"/>
</clipPath>
</defs>
</svg>
