<svg width="16" height="16" viewBox="0 0 16 16" fill="none" xmlns="http://www.w3.org/2000/svg">
<g clip-path="url(#clip0_1276_35)">
<path d="M16.0001 8.97278H8.9729V16H16.0001V8.97278Z" fill="#0d0b0d"/>
<path d="M12.4865 7.0272C14.427 7.0272 16.0001 5.45411 16.0001 3.5136C16.0001 1.57309 14.427 0 12.4865 0C10.546 0 8.9729 1.57309 8.9729 3.5136C8.9729 5.45411 10.546 7.0272 12.4865 7.0272Z" fill="#0d0b0d"/>
<path d="M7.0272 8.97278H0V16H7.0272V8.97278Z" fill="#0d0b0d"/>
<path d="M3.5136 7.0272C5.45411 7.0272 7.0272 5.45411 7.0272 3.5136C7.0272 1.57309 5.45411 0 3.5136 0C1.57309 0 0 1.57309 0 3.5136C0 5.45411 1.57309 7.0272 3.5136 7.0272Z" fill="#0d0b0d"/>
</g>
<defs>
<clipPath id="clip0_1276_35">
<rect width="16" height="16" fill="white"/>
</clipPath>
</defs>
</svg>
